<svg width="20" height="20" viewBox="0 0 20 20" fill="none" xmlns="http://www.w3.org/2000/svg">
<path d="M10.0064 2C5.77152 2 2.30893 5.31723 2.04505 9.49114C2.01931 9.64573 2 9.80676 2 9.96779C2 10.1288 2.01287 10.277 2.03862 10.4316C2.26388 14.6377 5.74578 18 10.0064 18C14.2671 18 18 14.4122 18 10C18 5.58776 14.4151 2 10.0064 2ZM14.4859 9.4847C14.4602 8.67955 14.3636 7.9066 14.2156 7.18518C15.638 7.73913 16.642 8.56361 16.9059 9.4847H14.4859ZM13.5205 9.4847H10.4891V6.45089C11.4288 6.48953 12.3234 6.6248 13.1344 6.83736C13.3467 7.64895 13.4819 8.54428 13.5205 9.4847ZM10.4891 5.49114V3.06924C11.4095 3.33333 12.2269 4.33816 12.7868 5.76167C12.066 5.61353 11.3001 5.52335 10.4891 5.49114ZM9.52373 3.06924V5.49114C8.71923 5.51691 7.95334 5.60064 7.2325 5.74879C7.786 4.33172 8.60338 3.33977 9.52373 3.07568V3.06924ZM9.52373 6.45089V9.4847H6.49879C6.53741 8.53784 6.67257 7.63607 6.88496 6.81804C7.6959 6.61192 8.59051 6.48309 9.52373 6.45089ZM5.53339 9.4847H3.04264C3.31295 8.54428 4.34272 7.71337 5.81014 7.15942C5.65567 7.88728 5.56557 8.66667 5.53339 9.4847ZM5.53339 10.4509C5.55913 11.2689 5.64924 12.0419 5.79726 12.7697C4.34272 12.2158 3.31295 11.3849 3.04907 10.4509H5.53982H5.53339ZM6.49879 10.4509H9.53017V13.4847C8.58407 13.4525 7.68302 13.3237 6.87208 13.1111C6.65969 12.2931 6.53097 11.3977 6.49879 10.4509ZM9.53017 14.4509V16.9436C8.59694 16.6731 7.76669 15.649 7.21319 14.1932C7.94047 14.3414 8.71923 14.4316 9.53017 14.4573V14.4509ZM10.4956 16.9436V14.4509C11.313 14.4251 12.0917 14.3285 12.819 14.1739C12.2655 15.6361 11.4288 16.6731 10.4956 16.9436ZM10.4956 13.4847V10.4509H13.527C13.4948 11.3913 13.366 12.2802 13.1601 13.0918C12.3427 13.3043 11.4417 13.4461 10.4956 13.4783V13.4847ZM14.4924 10.4509H16.9123C16.6484 11.372 15.6508 12.1836 14.2414 12.744C14.3829 12.0225 14.473 11.256 14.4988 10.4509H14.4924ZM16.5326 7.37842C15.8568 6.83092 14.9686 6.37359 13.9324 6.05153C13.6106 5.02737 13.1601 4.14493 12.6259 3.47504C14.4023 4.19002 15.8182 5.60709 16.5326 7.37842ZM7.39984 3.47504C6.86565 4.13849 6.42156 5.00805 6.09976 6.02576C5.07643 6.34138 4.20113 6.77939 3.51891 7.30757C4.24618 5.56844 5.64924 4.17713 7.39984 3.47504ZM3.49316 12.6087C4.16895 13.1433 5.05068 13.5878 6.08045 13.9034C6.40225 14.9469 6.85278 15.8357 7.3934 16.5185C5.62349 15.8035 4.20756 14.3865 3.49316 12.6087ZM12.6323 16.5185C13.1794 15.8293 13.6364 14.934 13.9582 13.8776C15.0008 13.5491 15.889 13.0853 16.5583 12.5378C15.8568 14.3478 14.428 15.7971 12.6323 16.5185Z" fill="#3B3B42"/>
</svg>
